<svg width="84" height="90" viewBox="0 0 84 90" fill="none" xmlns="http://www.w3.org/2000/svg">
<path d="M69.1024 77.2285C65.9147 72.729 61.7904 69.0802 57.0546 66.5693C52.3188 64.0584 47.1008 62.7542 41.8116 62.7593C36.5225 62.7542 31.3045 64.0584 26.5687 66.5693C21.8329 69.0802 17.7086 72.729 14.5209 77.2285M69.1024 77.2285C75.3229 71.3299 79.71 63.5548 81.6902 54.9342C83.6705 46.3137 83.1459 37.2551 80.186 28.9597C77.2261 20.6643 71.9708 13.5241 65.1169 8.48603C58.2631 3.44794 50.1346 0.75 41.8094 0.75C33.4842 0.75 25.3557 3.44794 18.5018 8.48603C11.648 13.5241 6.39261 20.6643 3.43271 28.9597C0.472811 37.2551 -0.0517842 46.3137 1.9285 54.9342C3.90878 63.5548 8.30037 71.3299 14.5209 77.2285M69.1024 77.2285C61.5932 84.3691 51.874 88.3084 41.8116 88.2932C31.7477 88.3096 22.0312 84.3702 14.5209 77.2285M55.4981 33.5778C55.4981 37.4475 54.0561 41.1587 51.4894 43.895C48.9227 46.6313 45.4415 48.1686 41.8116 48.1686C38.1818 48.1686 34.7006 46.6313 32.1339 43.895C29.5672 41.1587 28.1252 37.4475 28.1252 33.5778C28.1252 29.7081 29.5672 25.9969 32.1339 23.2606C34.7006 20.5243 38.1818 18.987 41.8116 18.987C45.4415 18.987 48.9227 20.5243 51.4894 23.2606C54.0561 25.9969 55.4981 29.7081 55.4981 33.5778Z" stroke="black" stroke-width="1.5" stroke-linecap="round" stroke-linejoin="round"/>
</svg>
