<svg width="23" height="23" viewBox="0 0 23 23" fill="none" xmlns="http://www.w3.org/2000/svg">
<path d="M8.57227 7.83661H7.14356C6.57518 7.83661 6.03008 8.06178 5.62818 8.4626C5.22628 8.86342 5.00049 9.40704 5.00049 9.97388V18.523C5.00049 19.0898 5.22628 19.6334 5.62818 20.0343C6.03008 20.4351 6.57518 20.6603 7.14356 20.6603H15.7158C16.2842 20.6603 16.8293 20.4351 17.2312 20.0343C17.6331 19.6334 17.8589 19.0898 17.8589 18.523V9.97388C17.8589 9.40704 17.6331 8.86342 17.2312 8.4626C16.8293 8.06178 16.2842 7.83661 15.7158 7.83661H14.2871M8.57227 11.3987L11.4297 14.2484M11.4297 14.2484L14.2871 11.3987M11.4297 14.2484V2.13721" stroke="#001841" stroke-width="1.5" stroke-linecap="round" stroke-linejoin="round"/>
</svg>
