<svg width="14" height="26" viewBox="0 0 14 26" fill="none" xmlns="http://www.w3.org/2000/svg">
<path fill-rule="evenodd" clip-rule="evenodd" d="M0.328767 11.8728C0.118091 12.0896 -0.000242233 12.3835 -0.000242233 12.6899C-0.000242233 12.9963 0.118091 13.2902 0.328767 13.507L11.5788 25.0695C11.792 25.2737 12.0741 25.3849 12.3655 25.3796C12.657 25.3744 12.9351 25.253 13.1412 25.0412C13.3473 24.8293 13.4654 24.5435 13.4705 24.244C13.4757 23.9444 13.3675 23.6545 13.1688 23.4353L2.71377 12.6899L13.1688 1.94449C13.3675 1.72531 13.4757 1.4354 13.4705 1.13585C13.4654 0.836305 13.3473 0.550503 13.1412 0.338658C12.9351 0.126813 12.657 0.00546531 12.3655 0.000180139C12.0741 -0.00510503 11.792 0.106085 11.5788 0.310325L0.328767 11.8728Z" fill="#001841"/>
</svg>
